<svg xmlns="http://www.w3.org/2000/svg" xmlns:xlink="http://www.w3.org/1999/xlink" width="1920" zoomAndPan="magnify" viewBox="0 0 1440 809.999993" height="1080" preserveAspectRatio="xMidYMid meet" version="1.0"><defs><g/><clipPath id="ce265b202c"><rect x="0" width="1157" y="0" height="184"/></clipPath><clipPath id="bb1ece04b8"><rect x="0" width="431" y="0" height="77"/></clipPath></defs><path stroke-linecap="butt" transform="matrix(0.75, 0, 0, 0.75, 191.229196, 492.334555)" fill="none" stroke-linejoin="miter" d="M 0.00169726 2.501843 L 338.527756 2.501843 " stroke="#000000" stroke-width="5" stroke-opacity="1" stroke-miterlimit="4"/><path stroke-linecap="butt" transform="matrix(0.749972, -0.0064261, 0.0064261, 0.749972, 983.387525, 490.322755)" fill="none" stroke-linejoin="miter" d="M -0.00167911 2.502029 L 353.813406 2.502313 " stroke="#000000" stroke-width="5" stroke-opacity="1" stroke-miterlimit="4"/><g transform="matrix(1, 0, 0, 1, 152, 252)"><g clip-path="url(#ce265b202c)"><g fill="#000000" fill-opacity="1"><g transform="translate(0.355262, 139.005087)"><g><path d="M 31.984375 -91.546875 C 25.816406 -91.546875 20.738281 -89.648438 16.75 -85.859375 C 12.757812 -82.078125 9.703125 -76.347656 7.578125 -68.671875 C 7.578125 -68.460938 7.296875 -68.359375 6.734375 -68.359375 C 6.179688 -68.359375 5.90625 -68.507812 5.90625 -68.8125 C 6.3125 -72.757812 6.765625 -77.835938 7.265625 -84.046875 C 7.773438 -90.265625 8.03125 -94.941406 8.03125 -98.078125 C 8.03125 -98.578125 8.304688 -98.828125 8.859375 -98.828125 C 9.421875 -98.828125 9.703125 -98.578125 9.703125 -98.078125 C 9.703125 -95.847656 12.53125 -94.734375 18.1875 -94.734375 C 26.875 -94.429688 37.03125 -94.28125 48.65625 -94.28125 C 54.613281 -94.28125 60.929688 -94.378906 67.609375 -94.578125 L 77.90625 -94.734375 C 81.75 -94.734375 84.550781 -94.984375 86.3125 -95.484375 C 88.082031 -95.992188 89.222656 -97.007812 89.734375 -98.53125 C 89.835938 -98.925781 90.140625 -99.125 90.640625 -99.125 C 91.148438 -99.125 91.40625 -98.925781 91.40625 -98.53125 C 91.101562 -95.394531 90.796875 -90.644531 90.484375 -84.28125 C 90.179688 -77.914062 90.03125 -72.757812 90.03125 -68.8125 C 90.03125 -68.507812 89.753906 -68.359375 89.203125 -68.359375 C 88.648438 -68.359375 88.320312 -68.507812 88.21875 -68.8125 C 87.207031 -76.59375 84.832031 -82.328125 81.09375 -86.015625 C 77.351562 -89.703125 72.300781 -91.546875 65.9375 -91.546875 C 63.101562 -91.546875 61.003906 -91.289062 59.640625 -90.78125 C 58.273438 -90.28125 57.363281 -89.398438 56.90625 -88.140625 C 56.457031 -86.878906 56.234375 -84.882812 56.234375 -82.15625 L 56.234375 -12.28125 C 56.234375 -9.144531 56.535156 -6.867188 57.140625 -5.453125 C 57.742188 -4.035156 58.957031 -3.070312 60.78125 -2.5625 C 62.601562 -2.0625 65.484375 -1.8125 69.421875 -1.8125 C 69.722656 -1.8125 69.875 -1.507812 69.875 -0.90625 C 69.875 -0.300781 69.722656 0 69.421875 0 C 65.890625 0 63.113281 -0.0507812 61.09375 -0.15625 L 48.65625 -0.296875 L 36.828125 -0.15625 C 34.710938 -0.0507812 31.785156 0 28.046875 0 C 27.835938 0 27.734375 -0.300781 27.734375 -0.90625 C 27.734375 -1.507812 27.835938 -1.8125 28.046875 -1.8125 C 31.984375 -1.8125 34.882812 -2.0625 36.75 -2.5625 C 38.625 -3.070312 39.890625 -4.0625 40.546875 -5.53125 C 41.203125 -7 41.53125 -9.25 41.53125 -12.28125 L 41.53125 -82.453125 C 41.53125 -85.085938 41.273438 -87.007812 40.765625 -88.21875 C 40.265625 -89.425781 39.359375 -90.28125 38.046875 -90.78125 C 36.734375 -91.289062 34.710938 -91.546875 31.984375 -91.546875 Z M 31.984375 -91.546875 "/></g></g></g><g fill="#000000" fill-opacity="1"><g transform="translate(117.216924, 139.005087)"><g><path d="M 33.046875 -12.28125 C 33.046875 -9.144531 33.296875 -6.867188 33.796875 -5.453125 C 34.304688 -4.035156 35.34375 -3.070312 36.90625 -2.5625 C 38.476562 -2.0625 40.976562 -1.8125 44.40625 -1.8125 C 44.707031 -1.8125 44.859375 -1.507812 44.859375 -0.90625 C 44.859375 -0.300781 44.707031 0 44.40625 0 C 41.175781 0 38.601562 -0.0507812 36.6875 -0.15625 L 25.46875 -0.296875 L 14.546875 -0.15625 C 12.628906 -0.0507812 10.003906 0 6.671875 0 C 6.367188 0 6.21875 -0.300781 6.21875 -0.90625 C 6.21875 -1.507812 6.367188 -1.8125 6.671875 -1.8125 C 10.109375 -1.8125 12.609375 -2.0625 14.171875 -2.5625 C 15.734375 -3.070312 16.816406 -4.0625 17.421875 -5.53125 C 18.035156 -7 18.34375 -9.25 18.34375 -12.28125 L 18.34375 -82.453125 C 18.34375 -85.484375 18.035156 -87.707031 17.421875 -89.125 C 16.816406 -90.539062 15.734375 -91.523438 14.171875 -92.078125 C 12.609375 -92.640625 10.109375 -92.921875 6.671875 -92.921875 C 6.367188 -92.921875 6.21875 -93.222656 6.21875 -93.828125 C 6.21875 -94.429688 6.367188 -94.734375 6.671875 -94.734375 L 14.546875 -94.578125 C 18.992188 -94.378906 22.632812 -94.28125 25.46875 -94.28125 C 28.59375 -94.28125 32.378906 -94.378906 36.828125 -94.578125 L 44.40625 -94.734375 C 44.707031 -94.734375 44.859375 -94.429688 44.859375 -93.828125 C 44.859375 -93.222656 44.707031 -92.921875 44.40625 -92.921875 C 41.070312 -92.921875 38.625 -92.613281 37.0625 -92 C 35.5 -91.394531 34.4375 -90.359375 33.875 -88.890625 C 33.320312 -87.429688 33.046875 -85.1875 33.046875 -82.15625 Z M 33.046875 -12.28125 "/></g></g></g><g fill="#000000" fill-opacity="1"><g transform="translate(188.455823, 139.005087)"><g><path d="M 48.203125 0.609375 C 45.066406 0.609375 41.425781 0.457031 37.28125 0.15625 C 35.769531 0.0507812 33.851562 -0.046875 31.53125 -0.140625 C 29.207031 -0.242188 26.578125 -0.296875 23.640625 -0.296875 L 12.890625 -0.15625 C 10.960938 -0.0507812 8.28125 0 4.84375 0 C 4.644531 0 4.546875 -0.300781 4.546875 -0.90625 C 4.546875 -1.507812 4.644531 -1.8125 4.84375 -1.8125 C 8.28125 -1.8125 10.78125 -2.0625 12.34375 -2.5625 C 13.914062 -3.070312 15.003906 -4.0625 15.609375 -5.53125 C 16.210938 -7 16.515625 -9.25 16.515625 -12.28125 L 16.515625 -82.453125 C 16.515625 -85.484375 16.238281 -87.707031 15.6875 -89.125 C 15.132812 -90.539062 14.046875 -91.523438 12.421875 -92.078125 C 10.804688 -92.640625 8.332031 -92.921875 5 -92.921875 C 4.800781 -92.921875 4.703125 -93.222656 4.703125 -93.828125 C 4.703125 -94.429688 4.800781 -94.734375 5 -94.734375 L 13.03125 -94.578125 C 17.476562 -94.378906 21.015625 -94.28125 23.640625 -94.28125 C 27.679688 -94.28125 31.773438 -94.429688 35.921875 -94.734375 C 40.972656 -94.941406 44.359375 -95.046875 46.078125 -95.046875 C 56.390625 -95.046875 65.535156 -93.019531 73.515625 -88.96875 C 81.492188 -84.925781 87.679688 -79.421875 92.078125 -72.453125 C 96.472656 -65.484375 98.671875 -57.648438 98.671875 -48.953125 C 98.671875 -39.148438 96.394531 -30.484375 91.84375 -22.953125 C 87.300781 -15.429688 81.191406 -9.625 73.515625 -5.53125 C 65.835938 -1.4375 57.398438 0.609375 48.203125 0.609375 Z M 46.6875 -2.421875 C 53.65625 -2.421875 59.84375 -4.085938 65.25 -7.421875 C 70.65625 -10.753906 74.875 -15.679688 77.90625 -22.203125 C 80.9375 -28.722656 82.453125 -36.53125 82.453125 -45.625 C 82.453125 -54.3125 81.007812 -62.164062 78.125 -69.1875 C 75.25 -76.21875 71.179688 -81.78125 65.921875 -85.875 C 60.671875 -89.96875 54.5625 -92.015625 47.59375 -92.015625 C 43.351562 -92.015625 40.066406 -91.757812 37.734375 -91.25 C 35.410156 -90.738281 33.71875 -89.800781 32.65625 -88.4375 C 31.601562 -87.082031 31.078125 -84.988281 31.078125 -82.15625 L 31.078125 -13.9375 C 31.078125 -9.800781 32.132812 -6.847656 34.25 -5.078125 C 36.375 -3.304688 40.519531 -2.421875 46.6875 -2.421875 Z M 46.6875 -2.421875 "/></g></g></g><g fill="#000000" fill-opacity="1"><g transform="translate(312.592854, 139.005087)"><g><path d="M 107.765625 -1.8125 C 108.273438 -1.8125 108.53125 -1.507812 108.53125 -0.90625 C 108.53125 -0.300781 108.273438 0 107.765625 0 C 105.847656 0 102.769531 -0.0976562 98.53125 -0.296875 C 94.28125 -0.503906 91.195312 -0.609375 89.28125 -0.609375 C 86.75 -0.609375 83.769531 -0.503906 80.34375 -0.296875 C 76.90625 -0.0976562 74.222656 0 72.296875 0 C 71.898438 0 71.703125 -0.300781 71.703125 -0.90625 C 71.703125 -1.507812 71.898438 -1.8125 72.296875 -1.8125 C 75.234375 -1.8125 77.382812 -2.140625 78.75 -2.796875 C 80.113281 -3.460938 80.796875 -4.550781 80.796875 -6.0625 C 80.796875 -7.582031 79.9375 -10.160156 78.21875 -13.796875 L 66.6875 -37.140625 L 30.015625 -37.140625 L 22.734375 -20.765625 C 21.421875 -17.734375 20.765625 -15.003906 20.765625 -12.578125 C 20.765625 -9.046875 22.023438 -6.367188 24.546875 -4.546875 C 27.078125 -2.722656 30.617188 -1.8125 35.171875 -1.8125 C 35.671875 -1.8125 35.921875 -1.507812 35.921875 -0.90625 C 35.921875 -0.300781 35.671875 0 35.171875 0 C 33.347656 0 30.71875 -0.0976562 27.28125 -0.296875 C 23.445312 -0.503906 20.113281 -0.609375 17.28125 -0.609375 C 14.550781 -0.609375 11.367188 -0.503906 7.734375 -0.296875 C 4.492188 -0.0976562 1.816406 0 -0.296875 0 C -0.804688 0 -1.0625 -0.300781 -1.0625 -0.90625 C -1.0625 -1.507812 -0.804688 -1.8125 -0.296875 -1.8125 C 2.523438 -1.8125 4.894531 -2.367188 6.8125 -3.484375 C 8.738281 -4.597656 10.609375 -6.59375 12.421875 -9.46875 C 14.242188 -12.351562 16.421875 -16.625 18.953125 -22.28125 L 51.53125 -95.640625 C 51.738281 -95.941406 52.195312 -96.09375 52.90625 -96.09375 C 53.613281 -96.09375 54.015625 -95.941406 54.109375 -95.640625 L 91.25 -20.765625 C 94.789062 -13.492188 97.742188 -8.515625 100.109375 -5.828125 C 102.484375 -3.148438 105.035156 -1.8125 107.765625 -1.8125 Z M 31.6875 -40.921875 L 64.875 -40.921875 L 47.4375 -76.25 Z M 31.6875 -40.921875 "/></g></g></g><g fill="#000000" fill-opacity="1"><g transform="translate(440.216039, 139.005087)"><g><path d="M 30.921875 -12.890625 C 30.921875 -10.160156 31.144531 -8.1875 31.59375 -6.96875 C 32.050781 -5.757812 32.9375 -4.953125 34.25 -4.546875 C 35.570312 -4.140625 37.695312 -3.9375 40.625 -3.9375 L 49.71875 -3.9375 C 56.894531 -3.9375 62.957031 -5.929688 67.90625 -9.921875 C 72.851562 -13.921875 76.140625 -19.304688 77.765625 -26.078125 C 77.859375 -26.378906 78.15625 -26.503906 78.65625 -26.453125 C 79.164062 -26.398438 79.421875 -26.222656 79.421875 -25.921875 C 78.515625 -16.421875 78.0625 -8.539062 78.0625 -2.28125 C 78.0625 -1.46875 77.910156 -0.882812 77.609375 -0.53125 C 77.304688 -0.175781 76.703125 0 75.796875 0 L 4.84375 0 C 4.644531 0 4.546875 -0.300781 4.546875 -0.90625 C 4.546875 -1.507812 4.644531 -1.8125 4.84375 -1.8125 C 8.28125 -1.8125 10.78125 -2.0625 12.34375 -2.5625 C 13.914062 -3.070312 14.976562 -4.0625 15.53125 -5.53125 C 16.09375 -7 16.375 -9.25 16.375 -12.28125 L 16.375 -82.453125 C 16.375 -85.484375 16.09375 -87.707031 15.53125 -89.125 C 14.976562 -90.539062 13.894531 -91.523438 12.28125 -92.078125 C 10.664062 -92.640625 8.1875 -92.921875 4.84375 -92.921875 C 4.644531 -92.921875 4.546875 -93.222656 4.546875 -93.828125 C 4.546875 -94.429688 4.644531 -94.734375 4.84375 -94.734375 L 12.578125 -94.578125 C 17.023438 -94.378906 20.664062 -94.28125 23.5 -94.28125 C 26.53125 -94.28125 30.269531 -94.378906 34.71875 -94.578125 L 42.296875 -94.734375 C 42.597656 -94.734375 42.75 -94.429688 42.75 -93.828125 C 42.75 -93.222656 42.597656 -92.921875 42.296875 -92.921875 C 38.953125 -92.921875 36.5 -92.640625 34.9375 -92.078125 C 33.375 -91.523438 32.3125 -90.515625 31.75 -89.046875 C 31.195312 -87.585938 30.921875 -85.34375 30.921875 -82.3125 Z M 30.921875 -12.890625 "/></g></g></g><g fill="#000000" fill-opacity="1"><g transform="translate(542.072207, 139.005087)"><g/></g></g><g fill="#000000" fill-opacity="1"><g transform="translate(597.396184, 139.005087)"><g><path d="M 31.53125 -12.890625 C 31.53125 -9.648438 31.90625 -7.296875 32.65625 -5.828125 C 33.414062 -4.367188 34.878906 -3.332031 37.046875 -2.71875 C 39.222656 -2.113281 42.640625 -1.8125 47.296875 -1.8125 C 47.597656 -1.8125 47.75 -1.507812 47.75 -0.90625 C 47.75 -0.300781 47.597656 0 47.296875 0 C 43.148438 0 39.914062 -0.0507812 37.59375 -0.15625 L 24.40625 -0.296875 L 13.484375 -0.15625 C 11.566406 -0.0507812 8.941406 0 5.609375 0 C 5.304688 0 5.15625 -0.300781 5.15625 -0.90625 C 5.15625 -1.507812 5.304688 -1.8125 5.609375 -1.8125 C 9.046875 -1.8125 11.519531 -2.0625 13.03125 -2.5625 C 14.550781 -3.070312 15.585938 -4.035156 16.140625 -5.453125 C 16.703125 -6.867188 16.984375 -9.144531 16.984375 -12.28125 L 16.984375 -82.453125 C 16.984375 -85.484375 16.703125 -87.707031 16.140625 -89.125 C 15.585938 -90.539062 14.523438 -91.523438 12.953125 -92.078125 C 11.390625 -92.640625 8.941406 -92.921875 5.609375 -92.921875 C 5.304688 -92.921875 5.15625 -93.222656 5.15625 -93.828125 C 5.15625 -94.429688 5.304688 -94.734375 5.609375 -94.734375 L 13.484375 -94.578125 C 17.929688 -94.378906 21.519531 -94.28125 24.25 -94.28125 C 26.570312 -94.28125 29.398438 -94.429688 32.734375 -94.734375 C 33.953125 -94.835938 35.597656 -94.9375 37.671875 -95.03125 C 39.742188 -95.132812 42.191406 -95.1875 45.015625 -95.1875 C 55.023438 -95.1875 62.929688 -93.0625 68.734375 -88.8125 C 74.546875 -84.570312 77.453125 -78.054688 77.453125 -69.265625 C 77.453125 -62.898438 75.8125 -57.492188 72.53125 -53.046875 C 69.25 -48.609375 65.054688 -45.273438 59.953125 -43.046875 C 54.847656 -40.828125 49.617188 -39.71875 44.265625 -39.71875 C 41.429688 -39.71875 39.054688 -39.96875 37.140625 -40.46875 C 36.835938 -40.46875 36.6875 -40.722656 36.6875 -41.234375 C 36.6875 -41.535156 36.757812 -41.835938 36.90625 -42.140625 C 37.0625 -42.441406 37.238281 -42.539062 37.4375 -42.4375 C 39.050781 -42.03125 40.820312 -41.828125 42.75 -41.828125 C 48 -41.828125 52.441406 -44 56.078125 -48.34375 C 59.722656 -52.695312 61.546875 -58.914062 61.546875 -67 C 61.546875 -74.976562 59.675781 -81.164062 55.9375 -85.5625 C 52.195312 -89.957031 47.039062 -92.15625 40.46875 -92.15625 C 38.039062 -92.15625 36.195312 -91.898438 34.9375 -91.390625 C 33.675781 -90.890625 32.789062 -89.957031 32.28125 -88.59375 C 31.78125 -87.226562 31.53125 -85.082031 31.53125 -82.15625 Z M 31.53125 -12.890625 "/></g></g></g><g fill="#000000" fill-opacity="1"><g transform="translate(700.616484, 139.005087)"><g><path d="M 55.484375 1.8125 C 46.078125 1.8125 37.710938 -0.382812 30.390625 -4.78125 C 23.066406 -9.175781 17.40625 -15.132812 13.40625 -22.65625 C 9.414062 -30.1875 7.421875 -38.398438 7.421875 -47.296875 C 7.421875 -57.703125 10.046875 -66.617188 15.296875 -74.046875 C 20.554688 -81.472656 27.304688 -87.054688 35.546875 -90.796875 C 43.785156 -94.535156 52.195312 -96.40625 60.78125 -96.40625 C 70.382812 -96.40625 78.820312 -94.15625 86.09375 -89.65625 C 93.375 -85.15625 98.957031 -79.21875 102.84375 -71.84375 C 106.738281 -64.46875 108.6875 -56.640625 108.6875 -48.359375 C 108.6875 -39.160156 106.257812 -30.71875 101.40625 -23.03125 C 96.550781 -15.351562 90.054688 -9.289062 81.921875 -4.84375 C 73.785156 -0.40625 64.972656 1.8125 55.484375 1.8125 Z M 60.625 -1.8125 C 66.6875 -1.8125 72.117188 -3.453125 76.921875 -6.734375 C 81.722656 -10.023438 85.515625 -14.851562 88.296875 -21.21875 C 91.078125 -27.582031 92.46875 -35.160156 92.46875 -43.953125 C 92.46875 -53.253906 90.925781 -61.59375 87.84375 -68.96875 C 84.757812 -76.34375 80.363281 -82.101562 74.65625 -86.25 C 68.945312 -90.394531 62.25 -92.46875 54.5625 -92.46875 C 44.757812 -92.46875 37.15625 -88.953125 31.75 -81.921875 C 26.34375 -74.898438 23.640625 -65.175781 23.640625 -52.75 C 23.640625 -43.144531 25.234375 -34.453125 28.421875 -26.671875 C 31.609375 -18.890625 36.003906 -12.800781 41.609375 -8.40625 C 47.210938 -4.007812 53.550781 -1.8125 60.625 -1.8125 Z M 60.625 -1.8125 "/></g></g></g><g fill="#000000" fill-opacity="1"><g transform="translate(836.576039, 139.005087)"><g><path d="M 33.046875 -12.28125 C 33.046875 -9.144531 33.296875 -6.867188 33.796875 -5.453125 C 34.304688 -4.035156 35.34375 -3.070312 36.90625 -2.5625 C 38.476562 -2.0625 40.976562 -1.8125 44.40625 -1.8125 C 44.707031 -1.8125 44.859375 -1.507812 44.859375 -0.90625 C 44.859375 -0.300781 44.707031 0 44.40625 0 C 41.175781 0 38.601562 -0.0507812 36.6875 -0.15625 L 25.46875 -0.296875 L 14.546875 -0.15625 C 12.628906 -0.0507812 10.003906 0 6.671875 0 C 6.367188 0 6.21875 -0.300781 6.21875 -0.90625 C 6.21875 -1.507812 6.367188 -1.8125 6.671875 -1.8125 C 10.109375 -1.8125 12.609375 -2.0625 14.171875 -2.5625 C 15.734375 -3.070312 16.816406 -4.0625 17.421875 -5.53125 C 18.035156 -7 18.34375 -9.25 18.34375 -12.28125 L 18.34375 -82.453125 C 18.34375 -85.484375 18.035156 -87.707031 17.421875 -89.125 C 16.816406 -90.539062 15.734375 -91.523438 14.171875 -92.078125 C 12.609375 -92.640625 10.109375 -92.921875 6.671875 -92.921875 C 6.367188 -92.921875 6.21875 -93.222656 6.21875 -93.828125 C 6.21875 -94.429688 6.367188 -94.734375 6.671875 -94.734375 L 14.546875 -94.578125 C 18.992188 -94.378906 22.632812 -94.28125 25.46875 -94.28125 C 28.59375 -94.28125 32.378906 -94.378906 36.828125 -94.578125 L 44.40625 -94.734375 C 44.707031 -94.734375 44.859375 -94.429688 44.859375 -93.828125 C 44.859375 -93.222656 44.707031 -92.921875 44.40625 -92.921875 C 41.070312 -92.921875 38.625 -92.613281 37.0625 -92 C 35.5 -91.394531 34.4375 -90.359375 33.875 -88.890625 C 33.320312 -87.429688 33.046875 -85.1875 33.046875 -82.15625 Z M 33.046875 -12.28125 "/></g></g></g><g fill="#000000" fill-opacity="1"><g transform="translate(907.814921, 139.005087)"><g><path d="M 108.6875 -94.734375 C 108.882812 -94.734375 108.984375 -94.429688 108.984375 -93.828125 C 108.984375 -93.222656 108.882812 -92.921875 108.6875 -92.921875 C 104.644531 -92.921875 101.507812 -91.476562 99.28125 -88.59375 C 97.0625 -85.71875 95.953125 -81.601562 95.953125 -76.25 L 95.953125 2.125 C 95.953125 2.425781 95.695312 2.625 95.1875 2.71875 C 94.6875 2.820312 94.332031 2.773438 94.125 2.578125 L 23.046875 -80.03125 L 23.046875 -18.34375 C 23.046875 -12.988281 24.101562 -8.894531 26.21875 -6.0625 C 28.34375 -3.226562 31.425781 -1.8125 35.46875 -1.8125 C 35.664062 -1.8125 35.765625 -1.507812 35.765625 -0.90625 C 35.765625 -0.300781 35.664062 0 35.46875 0 C 32.738281 0 30.664062 -0.0507812 29.25 -0.15625 L 21.21875 -0.296875 L 12.28125 -0.15625 C 10.664062 -0.0507812 8.34375 0 5.3125 0 C 5 0 4.84375 -0.300781 4.84375 -0.90625 C 4.84375 -1.507812 5 -1.8125 5.3125 -1.8125 C 9.65625 -1.8125 13.015625 -3.226562 15.390625 -6.0625 C 17.765625 -8.894531 18.953125 -12.988281 18.953125 -18.34375 L 18.953125 -84.734375 C 16.117188 -87.765625 13.5625 -89.882812 11.28125 -91.09375 C 9.007812 -92.3125 6.664062 -92.921875 4.25 -92.921875 C 4.039062 -92.921875 3.9375 -93.222656 3.9375 -93.828125 C 3.9375 -94.429688 4.039062 -94.734375 4.25 -94.734375 L 10.3125 -94.578125 C 11.625 -94.484375 13.492188 -94.4375 15.921875 -94.4375 L 25.609375 -94.578125 C 26.828125 -94.679688 28.296875 -94.734375 30.015625 -94.734375 C 30.816406 -94.734375 31.421875 -94.53125 31.828125 -94.125 C 32.234375 -93.726562 32.84375 -92.921875 33.65625 -91.703125 L 37.28125 -86.859375 L 91.859375 -22.578125 L 91.859375 -76.25 C 91.859375 -81.601562 90.796875 -85.71875 88.671875 -88.59375 C 86.546875 -91.476562 83.515625 -92.921875 79.578125 -92.921875 C 79.378906 -92.921875 79.28125 -93.222656 79.28125 -93.828125 C 79.28125 -94.429688 79.378906 -94.734375 79.578125 -94.734375 L 85.796875 -94.578125 C 89.023438 -94.378906 91.703125 -94.28125 93.828125 -94.28125 C 95.847656 -94.28125 98.578125 -94.378906 102.015625 -94.578125 Z M 108.6875 -94.734375 "/></g></g></g><g fill="#000000" fill-opacity="1"><g transform="translate(1038.621093, 139.005087)"><g><path d="M 31.984375 -91.546875 C 25.816406 -91.546875 20.738281 -89.648438 16.75 -85.859375 C 12.757812 -82.078125 9.703125 -76.347656 7.578125 -68.671875 C 7.578125 -68.460938 7.296875 -68.359375 6.734375 -68.359375 C 6.179688 -68.359375 5.90625 -68.507812 5.90625 -68.8125 C 6.3125 -72.757812 6.765625 -77.835938 7.265625 -84.046875 C 7.773438 -90.265625 8.03125 -94.941406 8.03125 -98.078125 C 8.03125 -98.578125 8.304688 -98.828125 8.859375 -98.828125 C 9.421875 -98.828125 9.703125 -98.578125 9.703125 -98.078125 C 9.703125 -95.847656 12.53125 -94.734375 18.1875 -94.734375 C 26.875 -94.429688 37.03125 -94.28125 48.65625 -94.28125 C 54.613281 -94.28125 60.929688 -94.378906 67.609375 -94.578125 L 77.90625 -94.734375 C 81.75 -94.734375 84.550781 -94.984375 86.3125 -95.484375 C 88.082031 -95.992188 89.222656 -97.007812 89.734375 -98.53125 C 89.835938 -98.925781 90.140625 -99.125 90.640625 -99.125 C 91.148438 -99.125 91.40625 -98.925781 91.40625 -98.53125 C 91.101562 -95.394531 90.796875 -90.644531 90.484375 -84.28125 C 90.179688 -77.914062 90.03125 -72.757812 90.03125 -68.8125 C 90.03125 -68.507812 89.753906 -68.359375 89.203125 -68.359375 C 88.648438 -68.359375 88.320312 -68.507812 88.21875 -68.8125 C 87.207031 -76.59375 84.832031 -82.328125 81.09375 -86.015625 C 77.351562 -89.703125 72.300781 -91.546875 65.9375 -91.546875 C 63.101562 -91.546875 61.003906 -91.289062 59.640625 -90.78125 C 58.273438 -90.28125 57.363281 -89.398438 56.90625 -88.140625 C 56.457031 -86.878906 56.234375 -84.882812 56.234375 -82.15625 L 56.234375 -12.28125 C 56.234375 -9.144531 56.535156 -6.867188 57.140625 -5.453125 C 57.742188 -4.035156 58.957031 -3.070312 60.78125 -2.5625 C 62.601562 -2.0625 65.484375 -1.8125 69.421875 -1.8125 C 69.722656 -1.8125 69.875 -1.507812 69.875 -0.90625 C 69.875 -0.300781 69.722656 0 69.421875 0 C 65.890625 0 63.113281 -0.0507812 61.09375 -0.15625 L 48.65625 -0.296875 L 36.828125 -0.15625 C 34.710938 -0.0507812 31.785156 0 28.046875 0 C 27.835938 0 27.734375 -0.300781 27.734375 -0.90625 C 27.734375 -1.507812 27.835938 -1.8125 28.046875 -1.8125 C 31.984375 -1.8125 34.882812 -2.0625 36.75 -2.5625 C 38.625 -3.070312 39.890625 -4.0625 40.546875 -5.53125 C 41.203125 -7 41.53125 -9.25 41.53125 -12.28125 L 41.53125 -82.453125 C 41.53125 -85.085938 41.273438 -87.007812 40.765625 -88.21875 C 40.265625 -89.425781 39.359375 -90.28125 38.046875 -90.78125 C 36.734375 -91.289062 34.710938 -91.546875 31.984375 -91.546875 Z M 31.984375 -91.546875 "/></g></g></g></g></g><g transform="matrix(1, 0, 0, 1, 509, 456)"><g clip-path="url(#bb1ece04b8)"><g fill="#000000" fill-opacity="1"><g transform="translate(0.26668, 59.240814)"><g><path d="M 16.40625 -40.03125 C 21.570312 -40.03125 25.34375 -39 27.71875 -36.9375 C 30.101562 -34.875 31.296875 -31.945312 31.296875 -28.15625 C 31.296875 -26.4375 31.019531 -24.804688 30.46875 -23.265625 C 29.925781 -21.722656 29.035156 -20.363281 27.796875 -19.1875 C 26.566406 -18.007812 24.945312 -17.078125 22.9375 -16.390625 C 20.9375 -15.703125 18.472656 -15.359375 15.546875 -15.359375 L 10.984375 -15.359375 L 10.984375 0 L 5.359375 0 L 5.359375 -40.03125 Z M 15.96875 -35.328125 L 10.984375 -35.328125 L 10.984375 -20.09375 L 14.953125 -20.09375 C 17.265625 -20.09375 19.207031 -20.351562 20.78125 -20.875 C 22.351562 -21.394531 23.539062 -22.226562 24.34375 -23.375 C 25.144531 -24.53125 25.546875 -26.046875 25.546875 -27.921875 C 25.546875 -30.410156 24.769531 -32.265625 23.21875 -33.484375 C 21.664062 -34.710938 19.25 -35.328125 15.96875 -35.328125 Z M 15.96875 -35.328125 "/></g></g></g><g fill="#000000" fill-opacity="1"><g transform="translate(53.396544, 59.240814)"><g><path d="M 30.34375 0 L 25.90625 -11.90625 L 10.21875 -11.90625 L 5.828125 0 L 0 0 L 15.28125 -40.203125 L 21.03125 -40.203125 L 36.21875 0 Z M 24.34375 -16.78125 L 20.125 -28.59375 C 20 -28.988281 19.800781 -29.585938 19.53125 -30.390625 C 19.269531 -31.191406 19.003906 -32.019531 18.734375 -32.875 C 18.472656 -33.738281 18.257812 -34.453125 18.09375 -35.015625 C 17.914062 -34.273438 17.707031 -33.488281 17.46875 -32.65625 C 17.226562 -31.820312 16.992188 -31.046875 16.765625 -30.328125 C 16.535156 -29.609375 16.347656 -29.03125 16.203125 -28.59375 L 11.9375 -16.78125 Z M 24.34375 -16.78125 "/></g></g></g><g fill="#000000" fill-opacity="1"><g transform="translate(108.689557, 59.240814)"><g><path d="M 16.40625 -40.03125 C 19.78125 -40.03125 22.566406 -39.613281 24.765625 -38.78125 C 26.960938 -37.957031 28.597656 -36.695312 29.671875 -35 C 30.753906 -33.3125 31.296875 -31.175781 31.296875 -28.59375 C 31.296875 -26.539062 30.921875 -24.8125 30.171875 -23.40625 C 29.421875 -22 28.4375 -20.847656 27.21875 -19.953125 C 26.007812 -19.066406 24.710938 -18.367188 23.328125 -17.859375 L 34.53125 0 L 28.09375 0 L 18.34375 -16.375 L 10.984375 -16.375 L 10.984375 0 L 5.359375 0 L 5.359375 -40.03125 Z M 16.046875 -35.265625 L 10.984375 -35.265625 L 10.984375 -21.0625 L 16.421875 -21.0625 C 19.585938 -21.0625 21.898438 -21.675781 23.359375 -22.90625 C 24.816406 -24.132812 25.546875 -25.957031 25.546875 -28.375 C 25.546875 -30.875 24.769531 -32.644531 23.21875 -33.6875 C 21.664062 -34.738281 19.273438 -35.265625 16.046875 -35.265625 Z M 16.046875 -35.265625 "/></g></g></g><g fill="#000000" fill-opacity="1"><g transform="translate(162.914683, 59.240814)"><g><path d="M 18.453125 0 L 12.8125 0 L 12.8125 -35.1875 L 0.65625 -35.1875 L 0.65625 -40.03125 L 30.578125 -40.03125 L 30.578125 -35.1875 L 18.453125 -35.1875 Z M 18.453125 0 "/></g></g></g><g fill="#000000" fill-opacity="1"><g transform="translate(213.224259, 59.240814)"><g><path d="M 37.734375 0 L 31 0 L 10.265625 -32.796875 L 10.046875 -32.796875 C 10.097656 -31.816406 10.160156 -30.738281 10.234375 -29.5625 C 10.304688 -28.382812 10.363281 -27.148438 10.40625 -25.859375 C 10.457031 -24.578125 10.492188 -23.273438 10.515625 -21.953125 L 10.515625 0 L 5.359375 0 L 5.359375 -40.03125 L 12.046875 -40.03125 L 32.6875 -7.390625 L 32.890625 -7.390625 C 32.847656 -8.191406 32.800781 -9.1875 32.75 -10.375 C 32.695312 -11.5625 32.644531 -12.816406 32.59375 -14.140625 C 32.550781 -15.460938 32.53125 -16.71875 32.53125 -17.90625 L 32.53125 -40.03125 L 37.734375 -40.03125 Z M 37.734375 0 "/></g></g></g><g fill="#000000" fill-opacity="1"><g transform="translate(275.307892, 59.240814)"><g><path d="M 27.84375 0 L 5.359375 0 L 5.359375 -40.03125 L 27.84375 -40.03125 L 27.84375 -35.21875 L 10.984375 -35.21875 L 10.984375 -23.296875 L 26.828125 -23.296875 L 26.828125 -18.53125 L 10.984375 -18.53125 L 10.984375 -4.84375 L 27.84375 -4.84375 Z M 27.84375 0 "/></g></g></g><g fill="#000000" fill-opacity="1"><g transform="translate(325.535314, 59.240814)"><g><path d="M 16.40625 -40.03125 C 19.78125 -40.03125 22.566406 -39.613281 24.765625 -38.78125 C 26.960938 -37.957031 28.597656 -36.695312 29.671875 -35 C 30.753906 -33.3125 31.296875 -31.175781 31.296875 -28.59375 C 31.296875 -26.539062 30.921875 -24.8125 30.171875 -23.40625 C 29.421875 -22 28.4375 -20.847656 27.21875 -19.953125 C 26.007812 -19.066406 24.710938 -18.367188 23.328125 -17.859375 L 34.53125 0 L 28.09375 0 L 18.34375 -16.375 L 10.984375 -16.375 L 10.984375 0 L 5.359375 0 L 5.359375 -40.03125 Z M 16.046875 -35.265625 L 10.984375 -35.265625 L 10.984375 -21.0625 L 16.421875 -21.0625 C 19.585938 -21.0625 21.898438 -21.675781 23.359375 -22.90625 C 24.816406 -24.132812 25.546875 -25.957031 25.546875 -28.375 C 25.546875 -30.875 24.769531 -32.644531 23.21875 -33.6875 C 21.664062 -34.738281 19.273438 -35.265625 16.046875 -35.265625 Z M 16.046875 -35.265625 "/></g></g></g><g fill="#000000" fill-opacity="1"><g transform="translate(379.760423, 59.240814)"><g><path d="M 28.234375 -10.765625 C 28.234375 -8.390625 27.644531 -6.359375 26.46875 -4.671875 C 25.289062 -2.984375 23.632812 -1.691406 21.5 -0.796875 C 19.363281 0.0976562 16.820312 0.546875 13.875 0.546875 C 12.40625 0.546875 11 0.46875 9.65625 0.3125 C 8.3125 0.15625 7.0625 -0.0664062 5.90625 -0.359375 C 4.757812 -0.648438 3.722656 -1.015625 2.796875 -1.453125 L 2.796875 -6.765625 C 4.304688 -6.140625 6.054688 -5.554688 8.046875 -5.015625 C 10.035156 -4.484375 12.09375 -4.21875 14.21875 -4.21875 C 16.0625 -4.21875 17.609375 -4.46875 18.859375 -4.96875 C 20.109375 -5.46875 21.050781 -6.175781 21.6875 -7.09375 C 22.320312 -8.007812 22.640625 -9.101562 22.640625 -10.375 C 22.640625 -11.65625 22.328125 -12.726562 21.703125 -13.59375 C 21.085938 -14.457031 20.109375 -15.253906 18.765625 -15.984375 C 17.421875 -16.722656 15.664062 -17.5 13.5 -18.3125 C 11.988281 -18.863281 10.609375 -19.488281 9.359375 -20.1875 C 8.117188 -20.894531 7.046875 -21.703125 6.140625 -22.609375 C 5.242188 -23.523438 4.546875 -24.597656 4.046875 -25.828125 C 3.554688 -27.066406 3.3125 -28.488281 3.3125 -30.09375 C 3.3125 -32.300781 3.851562 -34.1875 4.9375 -35.75 C 6.03125 -37.320312 7.550781 -38.523438 9.5 -39.359375 C 11.457031 -40.191406 13.722656 -40.609375 16.296875 -40.609375 C 18.410156 -40.609375 20.382812 -40.394531 22.21875 -39.96875 C 24.050781 -39.550781 25.800781 -38.976562 27.46875 -38.25 L 25.6875 -33.59375 C 24.132812 -34.238281 22.570312 -34.757812 21 -35.15625 C 19.425781 -35.5625 17.800781 -35.765625 16.125 -35.765625 C 14.570312 -35.765625 13.257812 -35.535156 12.1875 -35.078125 C 11.125 -34.617188 10.3125 -33.96875 9.75 -33.125 C 9.195312 -32.289062 8.921875 -31.296875 8.921875 -30.140625 C 8.921875 -28.847656 9.210938 -27.769531 9.796875 -26.90625 C 10.378906 -26.050781 11.300781 -25.273438 12.5625 -24.578125 C 13.820312 -23.890625 15.46875 -23.15625 17.5 -22.375 C 19.78125 -21.5 21.71875 -20.566406 23.3125 -19.578125 C 24.914062 -18.585938 26.132812 -17.398438 26.96875 -16.015625 C 27.8125 -14.628906 28.234375 -12.878906 28.234375 -10.765625 Z M 28.234375 -10.765625 "/></g></g></g></g></g></svg>